  0
SECTION
  2
HEADER
  9
$ACADVER
  1
AC1015
  9
$ACADMAINTVER
 70
     6
  9
$DWGCODEPAGE
  3
ANSI_1252
  9
$INSBASE
 10
0.0
 20
0.0
 30
0.0
  9
$EXTMIN
 10
-50.0
 20
0.0
 30
0.0
  9
$EXTMAX
 10
50.0
 20
35.0
 30
0.0
  9
$LIMMIN
 10
0.0
 20
0.0
  9
$LIMMAX
 10
420.0
 20
297.0
  9
$ORTHOMODE
 70
     0
  9
$REGENMODE
 70
     1
  9
$FILLMODE
 70
     1
  9
$QTEXTMODE
 70
     0
  9
$MIRRTEXT
 70
     1
  9
$LTSCALE
 40
1.0
  9
$ATTMODE
 70
     1
  9
$TEXTSIZE
 40
3.5
  9
$TRACEWID
 40
1.0
  9
$TEXTSTYLE
  7
Standard
  9
$CLAYER
  8
0
  9
$CELTYPE
  6
ByLayer
  9
$CECOLOR
 62
   256
  9
$CELTSCALE
 40
1.0
  9
$DISPSILH
 70
     0
  9
$DIMSCALE
 40
1.0
  9
$DIMASZ
 40
3.302
  9
$DIMEXO
 40
0.0
  9
$DIMDLI
 40
3.75
  9
$DIMRND
 40
0.0
  9
$DIMDLE
 40
0.0
  9
$DIMEXE
 40
1.0
  9
$DIMTP
 40
0.0
  9
$DIMTM
 40
0.0
  9
$DIMTXT
 40
3.5
  9
$DIMCEN
 40
2.5
  9
$DIMTSZ
 40
0.0
  9
$DIMTOL
 70
     0
  9
$DIMLIM
 70
     0
  9
$DIMTIH
 70
     1
  9
$DIMTOH
 70
     1
  9
$DIMSE1
 70
     0
  9
$DIMSE2
 70
     0
  9
$DIMTAD
 70
     1
  9
$DIMZIN
 70
     1
  9
$DIMBLK
  1

  9
$DIMASO
 70
     1
  9
$DIMSHO
 70
     1
  9
$DIMPOST
  1

  9
$DIMAPOST
  1

  9
$DIMALT
 70
     0
  9
$DIMALTD
 70
     3
  9
$DIMALTF
 40
0.0393700787
  9
$DIMLFAC
 40
1.0
  9
$DIMTOFL
 70
     1
  9
$DIMTVP
 40
0.0
  9
$DIMTIX
 70
     0
  9
$DIMSOXD
 70
     0
  9
$DIMSAH
 70
     0
  9
$DIMBLK1
  1

  9
$DIMBLK2
  1

  9
$DIMSTYLE
  2
ISO-25
  9
$DIMCLRD
 70
     0
  9
$DIMCLRE
 70
     0
  9
$DIMCLRT
 70
     0
  9
$DIMTFAC
 40
1.0
  9
$DIMGAP
 40
1.524
  9
$DIMJUST
 70
     0
  9
$DIMSD1
 70
     0
  9
$DIMSD2
 70
     0
  9
$DIMTOLJ
 70
     0
  9
$DIMTZIN
 70
     1
  9
$DIMALTZ
 70
     0
  9
$DIMALTTZ
 70
     0
  9
$DIMUPT
 70
     0
  9
$DIMDEC
 70
     2
  9
$DIMTDEC
 70
     2
  9
$DIMALTU
 70
     2
  9
$DIMALTTD
 70
     3
  9
$DIMTXSTY
  7
Standard
  9
$DIMAUNIT
 70
     0
  9
$DIMADEC
 70
     2
  9
$DIMALTRND
 40
0.0
  9
$DIMAZIN
 70
     0
  9
$DIMDSEP
 70
    44
  9
$DIMATFIT
 70
     3
  9
$DIMFRAC
 70
     0
  9
$DIMLDRBLK
  1

  9
$DIMLUNIT
 70
     2
  9
$DIMLWD
 70
    -2
  9
$DIMLWE
 70
    -2
  9
$DIMTMOVE
 70
     0
  9
$LUNITS
 70
     2
  9
$LUPREC
 70
     2
  9
$SKETCHINC
 40
1.0
  9
$FILLETRAD
 40
0.0
  9
$AUNITS
 70
     0
  9
$AUPREC
 70
     2
  9
$MENU
  1
.
  9
$ELEVATION
 40
0.0
  9
$PELEVATION
 40
0.0
  9
$THICKNESS
 40
0.0
  9
$LIMCHECK
 70
     0
  9
$CHAMFERA
 40
0.0
  9
$CHAMFERB
 40
0.0
  9
$CHAMFERC
 40
0.0
  9
$CHAMFERD
 40
0.0
  9
$SKPOLY
 70
     0
  9
$TDCREATE
 40
2459996.769048102
  9
$TDUCREATE
 40
2459996.727381435
  9
$TDUPDATE
 40
2459996.769074051
  9
$TDUUPDATE
 40
2459996.727407384
  9
$TDINDWG
 40
0.0000000116
  9
$TDUSRTIMER
 40
0.0000000116
  9
$USRTIMER
 70
     1
  9
$ANGBASE
 50
0.0
  9
$ANGDIR
 70
     0
  9
$PDMODE
 70
     0
  9
$PDSIZE
 40
-1.0
  9
$PLINEWID
 40
0.0
  9
$SPLFRAME
 70
     0
  9
$SPLINETYPE
 70
     6
  9
$SPLINESEGS
 70
     8
  9
$HANDSEED
  5
7E
  9
$SURFTAB1
 70
     6
  9
$SURFTAB2
 70
     6
  9
$SURFTYPE
 70
     6
  9
$SURFU
 70
     6
  9
$SURFV
 70
     6
  9
$UCSBASE
  2

  9
$UCSNAME
  2

  9
$UCSORG
 10
0.0
 20
0.0
 30
0.0
  9
$UCSXDIR
 10
1.0
 20
0.0
 30
0.0
  9
$UCSYDIR
 10
0.0
 20
1.0
 30
0.0
  9
$UCSORTHOREF
  2

  9
$UCSORTHOVIEW
 70
     0
  9
$UCSORGTOP
 10
0.0
 20
0.0
 30
0.0
  9
$UCSORGBOTTOM
 10
0.0
 20
0.0
 30
0.0
  9
$UCSORGLEFT
 10
0.0
 20
0.0
 30
0.0
  9
$UCSORGRIGHT
 10
0.0
 20
0.0
 30
0.0
  9
$UCSORGFRONT
 10
0.0
 20
0.0
 30
0.0
  9
$UCSORGBACK
 10
0.0
 20
0.0
 30
0.0
  9
$PUCSBASE
  2

  9
$PUCSNAME
  2

  9
$PUCSORG
 10
0.0
 20
0.0
 30
0.0
  9
$PUCSXDIR
 10
1.0
 20
0.0
 30
0.0
  9
$PUCSYDIR
 10
0.0
 20
1.0
 30
0.0
  9
$PUCSORTHOREF
  2

  9
$PUCSORTHOVIEW
 70
     0
  9
$PUCSORGTOP
 10
0.0
 20
0.0
 30
0.0
  9
$PUCSORGBOTTOM
 10
0.0
 20
0.0
 30
0.0
  9
$PUCSORGLEFT
 10
0.0
 20
0.0
 30
0.0
  9
$PUCSORGRIGHT
 10
0.0
 20
0.0
 30
0.0
  9
$PUCSORGFRONT
 10
0.0
 20
0.0
 30
0.0
  9
$PUCSORGBACK
 10
0.0
 20
0.0
 30
0.0
  9
$USERI1
 70
     0
  9
$USERI2
 70
     0
  9
$USERI3
 70
     0
  9
$USERI4
 70
     0
  9
$USERI5
 70
     0
  9
$USERR1
 40
0.0
  9
$USERR2
 40
0.0
  9
$USERR3
 40
0.0
  9
$USERR4
 40
0.0
  9
$USERR5
 40
0.0
  9
$WORLDVIEW
 70
     1
  9
$SHADEDGE
 70
     3
  9
$SHADEDIF
 70
    70
  9
$TILEMODE
 70
     1
  9
$MAXACTVP
 70
    64
  9
$PINSBASE
 10
0.0
 20
0.0
 30
0.0
  9
$PLIMCHECK
 70
     0
  9
$PEXTMIN
 10
1.0000000000E+20
 20
1.0000000000E+20
 30
1.0000000000E+20
  9
$PEXTMAX
 10
-1.0000000000E+20
 20
-1.0000000000E+20
 30
-1.0000000000E+20
  9
$PLIMMIN
 10
0.0
 20
0.0
  9
$PLIMMAX
 10
420.0
 20
297.0
  9
$UNITMODE
 70
     0
  9
$VISRETAIN
 70
     1
  9
$PLINEGEN
 70
     0
  9
$PSLTSCALE
 70
     1
  9
$TREEDEPTH
 70
  3020
  9
$CMLSTYLE
  2
Standard
  9
$CMLJUST
 70
     0
  9
$CMLSCALE
 40
20.0
  9
$PROXYGRAPHICS
 70
     1
  9
$MEASUREMENT
 70
     1
  9
$CELWEIGHT
370
    -1
  9
$ENDCAPS
280
     0
  9
$JOINSTYLE
280
     0
  9
$LWDISPLAY
290
     1
  9
$INSUNITS
 70
     4
  9
$HYPERLINKBASE
  1

  9
$STYLESHEET
  1

  9
$XEDIT
290
     1
  9
$CEPSNTYPE
380
     0
  9
$PSTYLEMODE
290
     1
  9
$FINGERPRINTGUID
  2
{b95445c2-c7c4-4e44-b4b0-7df7d8fe0fe6}
  9
$VERSIONGUID
  2
{FAEB1C32-E019-11D5-929B-00C0DF256EC4}
  9
$EXTNAMES
290
     1
  9
$PSVPSCALE
 40
0.0
  9
$OLESTARTUP
290
     0
  0
ENDSEC
  0
SECTION
  2
CLASSES
  0
CLASS
  1
ACDBDICTIONARYWDFLT
  2
AcDbDictionaryWithDefault
  3
ObjectDBX Classes
 90
        0
280
     0
281
     0
  0
CLASS
  1
VISUALSTYLE
  2
AcDbVisualStyle
  3
ObjectDBX Classes
 90
     4095
280
     0
281
     0
  0
CLASS
  1
MATERIAL
  2
AcDbMaterial
  3
ObjectDBX Classes
 90
     1153
280
     0
281
     0
  0
CLASS
  1
SCALE
  2
AcDbScale
  3
ObjectDBX Classes
 90
     1153
280
     0
281
     0
  0
CLASS
  1
TABLESTYLE
  2
AcDbTableStyle
  3
ObjectDBX Classes
 90
     4095
280
     0
281
     0
  0
CLASS
  1
MLEADERSTYLE
  2
AcDbMLeaderStyle
  3
ACDB_MLEADERSTYLE_CLASS
 90
     4095
280
     0
281
     0
  0
CLASS
  1
SUN
  2
AcDbSun
  3
SCENEOE
 90
     1153
280
     0
281
     0
  0
CLASS
  1
ACDBPLACEHOLDER
  2
AcDbPlaceHolder
  3
ObjectDBX Classes
 90
        0
280
     0
281
     0
  0
CLASS
  1
LAYOUT
  2
AcDbLayout
  3
ObjectDBX Classes
 90
        0
280
     0
281
     0
  0
ENDSEC
  0
SECTION
  2
TABLES
  0
TABLE
  2
VPORT
  5
8
330
0
100
AcDbSymbolTable
 70
     1
  0
VPORT
  5
29
330
8
100
AcDbSymbolTableRecord
100
AcDbViewportTableRecord
  2
*Active
 70
     0
 10
0.0
 20
0.0
 11
1.0
 21
1.0
 12
0.0
 22
17.5
 13
0.0
 23
0.0
 14
10.0
 24
10.0
 15
10.0
 25
10.0
 16
0.0
 26
0.0
 36
1.0
 17
0.0
 27
0.0
 37
0.0
 40
35.7
 41
2.8571428571
 42
50.0
 43
0.0
 44
0.0
 50
0.0
 51
0.0
 71
     0
 72
   100
 73
     1
 74
     3
 75
     0
 76
     0
 77
     0
 78
     0
281
     0
 65
     1
110
0.0
120
0.0
130
0.0
111
1.0
121
0.0
131
0.0
112
0.0
122
1.0
132
0.0
 79
     0
146
0.0
  0
ENDTAB
  0
TABLE
  2
LTYPE
  5
5
330
0
100
AcDbSymbolTable
 70
     6
  0
LTYPE
  5
14
330
5
100
AcDbSymbolTableRecord
100
AcDbLinetypeTableRecord
  2
ByBlock
 70
     0
  3

 72
    65
 73
     0
 40
0.0
  0
LTYPE
  5
15
330
5
100
AcDbSymbolTableRecord
100
AcDbLinetypeTableRecord
  2
ByLayer
 70
     0
  3

 72
    65
 73
     0
 40
0.0
  0
LTYPE
  5
16
330
5
100
AcDbSymbolTableRecord
100
AcDbLinetypeTableRecord
  2
Continuous
 70
     0
  3
Solid line
 72
    65
 73
     0
 40
0.0
  0
LTYPE
  5
5E
330
5
100
AcDbSymbolTableRecord
100
AcDbLinetypeTableRecord
  2
HIDDEN
 70
     0
  3
Hidden __ __ __ __ __ __ __ __ __ __ __ __ __ __
 72
    65
 73
     2
 40
1.905
 49
1.27
 74
     0
 49
-0.635
 74
     0
  0
LTYPE
  5
5F
330
5
100
AcDbSymbolTableRecord
100
AcDbLinetypeTableRecord
  2
PHANTOM
 70
     0
  3
Phantom ______  __  __  ______  __  __  ______
 72
    65
 73
     6
 40
12.7
 49
6.35
 74
     0
 49
-1.27
 74
     0
 49
1.27
 74
     0
 49
-1.27
 74
     0
 49
1.27
 74
     0
 49
-1.27
 74
     0
  0
LTYPE
  5
60
330
5
100
AcDbSymbolTableRecord
100
AcDbLinetypeTableRecord
  2
CENTER
 70
     0
  3
Center ____ _ ____ _ ____ _ ____ _ ____ _ ____
 72
    65
 73
     4
 40
10.16
 49
6.35
 74
     0
 49
-1.27
 74
     0
 49
1.27
 74
     0
 49
-1.27
 74
     0
  0
LTYPE
  5
61
330
5
100
AcDbSymbolTableRecord
100
AcDbLinetypeTableRecord
  2
CENTERX2
 70
     0
  3
Center (2x) ________  __  ________  __  _____
 72
    65
 73
     4
 40
20.32
 49
12.7
 74
     0
 49
-2.54
 74
     0
 49
2.54
 74
     0
 49
-2.54
 74
     0
  0
LTYPE
  5
62
330
5
100
AcDbSymbolTableRecord
100
AcDbLinetypeTableRecord
  2
DOT2
 70
     0
  3
Dot (.5x) ........................................
 72
    65
 73
     2
 40
0.635
 49
0.0
 74
     0
 49
-0.635
 74
     0
  0
ENDTAB
  0
TABLE
  2
LAYER
  5
2
330
0
100
AcDbSymbolTable
 70
     1
  0
LAYER
  5
10
330
2
100
AcDbSymbolTableRecord
100
AcDbLayerTableRecord
  2
0
 70
     0
 62
     7
  6
Continuous
370
    -3
390
F
  0
ENDTAB
  0
TABLE
  2
STYLE
  5
3
330
0
100
AcDbSymbolTable
 70
     1
  0
STYLE
  5
11
330
3
100
AcDbSymbolTableRecord
100
AcDbTextStyleTableRecord
  2
Standard
 70
     0
 40
0.0
 41
1.0
 50
0.0
 71
     0
 42
3.5
  3
txt
  4

  0
ENDTAB
  0
TABLE
  2
VIEW
  5
6
330
0
100
AcDbSymbolTable
 70
     0
  0
ENDTAB
  0
TABLE
  2
UCS
  5
7
330
0
100
AcDbSymbolTable
 70
     0
  0
ENDTAB
  0
TABLE
  2
APPID
  5
9
330
0
100
AcDbSymbolTable
 70
     1
  0
APPID
  5
12
330
9
100
AcDbSymbolTableRecord
100
AcDbRegAppTableRecord
  2
ACAD
 70
     0
  0
ENDTAB
  0
TABLE
  2
DIMSTYLE
  5
A
330
0
100
AcDbSymbolTable
 70
     1
100
AcDbDimStyleTable
  0
DIMSTYLE
105
27
330
A
100
AcDbSymbolTableRecord
100
AcDbDimStyleTableRecord
  2
ISO-25
 70
     0
 41
2.5
 42
0.625
 43
3.75
 44
1.25
 73
     0
 74
     0
 77
     1
 78
     8
140
2.5
141
2.5
143
0.0393700787
147
0.625
171
     3
172
     1
178
     0
271
     2
272
     2
274
     3
278
    44
283
     0
284
     8
340
11
  0
ENDTAB
  0
TABLE
  2
BLOCK_RECORD
  5
1
330
0
100
AcDbSymbolTable
 70
     1
  0
BLOCK_RECORD
  5
1F
330
1
100
AcDbSymbolTableRecord
100
AcDbBlockTableRecord
  2
*Model_Space
340
22
  0
BLOCK_RECORD
  5
1B
330
1
100
AcDbSymbolTableRecord
100
AcDbBlockTableRecord
  2
*Paper_Space
340
1E
  0
BLOCK_RECORD
  5
23
330
1
100
AcDbSymbolTableRecord
100
AcDbBlockTableRecord
  2
*Paper_Space0
340
26
  0
ENDTAB
  0
ENDSEC
  0
SECTION
  2
BLOCKS
  0
BLOCK
  5
20
330
1F
100
AcDbEntity
  8
0
100
AcDbBlockBegin
  2
*Model_Space
 70
     0
 10
0.0
 20
0.0
 30
0.0
  3
*Model_Space
  1

  0
ENDBLK
  5
21
330
1F
100
AcDbEntity
  8
0
100
AcDbBlockEnd
  0
BLOCK
  5
1C
330
1B
100
AcDbEntity
 67
     1
  8
0
100
AcDbBlockBegin
  2
*Paper_Space
 70
     0
 10
0.0
 20
0.0
 30
0.0
  3
*Paper_Space
  1

  0
ENDBLK
  5
1D
330
1B
100
AcDbEntity
 67
     1
  8
0
100
AcDbBlockEnd
  0
BLOCK
  5
24
330
23
100
AcDbEntity
  8
0
100
AcDbBlockBegin
  2
*Paper_Space0
 70
     0
 10
0.0
 20
0.0
 30
0.0
  3
*Paper_Space0
  1

  0
ENDBLK
  5
25
330
23
100
AcDbEntity
  8
0
100
AcDbBlockEnd
  0
ENDSEC
  0
SECTION
  2
ENTITIES
  0
SPLINE
  5
63
330
1F
100
AcDbEntity
  8
0
  6
Continuous
 62
     7
370
    25
100
AcDbSpline
210
0.0
220
0.0
230
1.0
 70
     8
 71
     3
 72
    23
 73
    19
 74
     0
 42
0.00000001
 43
0.00000001
 40
0.0
 40
0.0
 40
0.0
 40
0.0
 40
0.0687118407239285
 40
0.1348120656080473
 40
0.1995375926079889
 40
0.2633349351079776
 40
0.3267474805653814
 40
0.3903284830692773
 40
0.4541258255692647
 40
0.5192033216913138
 40
0.5835101452921199
 40
0.6454971827645031
 40
0.7052898423114486
 40
0.7634875795843548
 40
0.8218564001280682
 40
0.8800042732065152
 40
0.939107709897902
 40
1.0
 40
1.0
 40
1.0
 40
1.0
 10
39.96797778496764
 20
25.95866831446552
 30
0.0
 10
39.82284860738675
 20
25.95444013059784
 30
0.0
 10
39.53810635621808
 20
25.94614446867164
 30
0.0
 10
39.11865714558354
 20
25.89742433766199
 30
0.0
 10
38.71664136061848
 20
25.8084690878715
 30
0.0
 10
38.32942768454976
 20
25.68637348066011
 30
0.0
 10
37.95774334859424
 20
25.5290119264793
 30
0.0
 10
37.60193380223387
 20
25.33839830340993
 30
0.0
 10
37.26406835408668
 20
25.1110250023203
 30
0.0
 10
36.94740988808748
 20
24.85306202654051
 30
0.0
 10
36.65296262652755
 20
24.57499926689769
 30
0.0
 10
36.40190796151155
 20
24.27143246099815
 30
0.0
 10
36.18640406332141
 20
23.95766522066937
 30
0.0
 10
36.00747011935287
 20
23.62990448304454
 30
0.0
 10
35.87138498962285
 20
23.2859905571422
 30
0.0
 10
35.77002809505942
 20
22.92841674074153
 30
0.0
 10
35.71239822418558
 20
22.55531427112338
 30
0.0
 10
35.70521612078387
 20
22.30175898847937
 30
0.0
 10
35.70157153496764
 20
22.1730913913886
 30
0.0
  0
SPLINE
  5
64
330
1F
100
AcDbEntity
  8
0
  6
Continuous
 62
     7
370
    25
100
AcDbSpline
210
0.0
220
0.0
230
1.0
 70
     8
 71
     3
 72
    23
 73
    19
 74
     0
 42
0.00000001
 43
0.00000001
 40
0.0
 40
0.0
 40
0.0
 40
0.0
 40
0.0595395854970872
 40
0.1174229600021168
 40
0.1744404410469198
 40
0.2317338905564203
 40
0.2897219772859579
 40
0.3492003964486027
 40
0.4105155317344489
 40
0.4750802789743616
 40
0.540094475476167
 40
0.6044440959297838
 40
0.6686966743402355
 40
0.7321102011010794
 40
0.7967393467417462
 40
0.8629057297096472
 40
0.9304616390764177
 40
1.0
 40
1.0
 40
1.0
 40
1.0
 10
35.70157153496764
 20
22.1730913913886
 30
0.0
 10
35.70486950424379
 20
22.04437762400994
 30
0.0
 10
35.71137370327652
 20
21.79053051653609
 30
0.0
 10
35.77411781584065
 20
21.41755114951582
 30
0.0
 10
35.87904673897002
 20
21.06001969370667
 30
0.0
 10
36.01957799344962
 20
20.71445973136347
 30
0.0
 10
36.20464379123778
 20
20.38423147482702
 30
0.0
 10
36.43174073515205
 20
20.07090054783389
 30
0.0
 10
36.69792663575065
 20
19.77091502618159
 30
0.0
 10
36.99964319004369
 20
19.48893577315447
 30
0.0
 10
37.3298513231646
 20
19.23011607477985
 30
0.0
 10
37.68253075561014
 20
19.00407213836978
 30
0.0
 10
38.05161001066905
 20
18.81317783373973
 30
0.0
 10
38.43838831542634
 20
18.66000830124473
 30
0.0
 10
38.83999932613207
 20
18.53693624727223
 30
0.0
 10
39.26005254129176
 20
18.44890595046334
 30
0.0
 10
39.69715880513543
 20
18.40018004147284
 30
0.0
 10
39.99330456346708
 20
18.39177683090471
 30
0.0
 10
40.14351865035225
 20
18.38751446831168
 30
0.0
  0
SPLINE
  5
65
330
1F
100
AcDbEntity
  8
0
  6
Continuous
 62
     7
370
    25
100
AcDbSpline
210
0.0
220
0.0
230
1.0
 70
     8
 71
     3
 72
    23
 73
    19
 74
     0
 42
0.00000001
 43
0.00000001
 40
0.0
 40
0.0
 40
0.0
 40
0.0
 40
0.0727129966169393
 40
0.1415474849795013
 40
0.2083625229559531
 40
0.2724615839557045
 40
0.3353899614876863
 40
0.3977112986796182
 40
0.4593833749474409
 40
0.5220981738873413
 40
0.5843147667471935
 40
0.6443919352300532
 40
0.7033450132947857
 40
0.7615088749701897
 40
0.8200304749172316
 40
0.8785170367553006
 40
0.9382645014876748
 40
1.0
 40
1.0
 40
1.0
 40
1.0
 10
40.14351865035225
 20
18.38751446831168
 30
0.0
 10
40.29501521289672
 20
18.39165312854536
 30
0.0
 10
40.58992751755911
 20
18.39970969304577
 30
0.0
 10
41.02196681651862
 20
18.44874570964264
 30
0.0
 10
41.4297685523342
 20
18.535689833982
 30
0.0
 10
41.81442206641103
 20
18.66043855237971
 30
0.0
 10
42.17978420395239
 20
18.81096985035396
 30
0.0
 10
42.52005164745437
 20
19.0026236602633
 30
0.0
 10
42.83550917122263
 20
19.23131420183297
 30
0.0
 10
43.12826917414966
 20
19.48827157275597
 30
0.0
 10
43.3882418013546
 20
19.77375260610916
 30
0.0
 10
43.61979743979312
 20
20.0725497152241
 30
0.0
 10
43.81661424246538
 20
20.3859745209128
 30
0.0
 10
43.97208007914726
 20
20.71795213419491
 30
0.0
 10
44.09990326849123
 20
21.06040151173123
 30
0.0
 10
44.18817559122657
 20
21.41883735943038
 30
0.0
 10
44.23707603362243
 20
21.79139222594697
 30
0.0
 10
44.2454121770401
 20
22.04447777879574
 30
0.0
 10
44.24964845804456
 20
22.1730913913886
 30
0.0
  0
SPLINE
  5
66
330
1F
100
AcDbEntity
  8
0
  6
Continuous
 62
     7
370
    25
100
AcDbSpline
210
0.0
220
0.0
230
1.0
 70
     8
 71
     3
 72
    23
 73
    19
 74
     0
 42
0.00000001
 43
0.00000001
 40
0.0
 40
0.0
 40
0.0
 40
0.0
 40
0.0607600970467263
 40
0.1197352241628599
 40
0.177756862130216
 40
0.2359989679007918
 40
0.2940703618108036
 40
0.3537332155261568
 40
0.4159726195849078
 40
0.480139837408385
 40
0.545076054675034
 40
0.6087348974468042
 40
0.6721778698820237
 40
0.7354527509796407
 40
0.799111593751411
 40
0.8642836660181012
 40
0.9308370508155376
 40
1.0
 40
1.0
 40
1.0
 40
1.0
 10
44.24964845804457
 20
22.1730913913886
 30
0.0
 10
44.24600354439061
 20
22.30175871208861
 30
0.0
 10
44.23882079494447
 20
22.55531345007074
 30
0.0
 10
44.18119563507511
 20
22.92841989140421
 30
0.0
 10
44.07982120636348
 20
23.28597892525799
 30
0.0
 10
43.94380156828479
 20
23.62994806532842
 30
0.0
 10
43.76462141659049
 20
23.95750123214878
 30
0.0
 10
43.5496095870948
 20
24.27275082021654
 30
0.0
 10
43.29416296752153
 20
24.57369797273168
 30
0.0
 10
43.00023471458065
 20
24.85326479770587
 30
0.0
 10
42.68327236179032
 20
25.1109726492334
 30
0.0
 10
42.34548592479683
 20
25.33840829120842
 30
0.0
 10
41.98965959614547
 20
25.52902366013291
 30
0.0
 10
41.61796421565591
 20
25.68631662462284
 30
0.0
 10
41.22962534512977
 20
25.8090627179846
 30
0.0
 10
40.82487278070532
 20
25.8973315171709
 30
0.0
 10
40.4016612163999
 20
25.94616349547272
 30
0.0
 10
40.11438021603207
 20
25.95444694982976
 30
0.0
 10
39.96797778496764
 20
25.95866831446552
 30
0.0
  0
LINE
  5
67
330
1F
100
AcDbEntity
  8
0
  6
Continuous
 62
     7
370
    25
100
AcDbLine
 10
-50.0
 20
35.0
 30
0.0
 11
-50.0
 21
0.0
 31
0.0
  0
LINE
  5
68
330
1F
100
AcDbEntity
  8
0
  6
Continuous
 62
     7
370
    25
100
AcDbLine
 10
-50.0
 20
0.0
 30
0.0
 11
-20.0
 21
0.0
 31
0.0
  0
LINE
  5
69
330
1F
100
AcDbEntity
  8
0
  6
Continuous
 62
     7
370
    25
100
AcDbLine
 10
-20.0
 20
0.0
 30
0.0
 11
-20.0
 21
19.0
 31
0.0
  0
LINE
  5
6A
330
1F
100
AcDbEntity
  8
0
  6
Continuous
 62
     7
370
    25
100
AcDbLine
 10
-20.0
 20
19.0
 30
0.0
 11
20.0
 21
19.0
 31
0.0
  0
LINE
  5
6B
330
1F
100
AcDbEntity
  8
0
  6
Continuous
 62
     7
370
    25
100
AcDbLine
 10
20.0
 20
19.0
 30
0.0
 11
20.0
 21
0.0
 31
0.0
  0
LINE
  5
6C
330
1F
100
AcDbEntity
  8
0
  6
Continuous
 62
     7
370
    25
100
AcDbLine
 10
20.0
 20
0.0
 30
0.0
 11
50.0
 21
0.0
 31
0.0
  0
LINE
  5
6D
330
1F
100
AcDbEntity
  8
0
  6
Continuous
 62
     7
370
    25
100
AcDbLine
 10
50.0
 20
0.0
 30
0.0
 11
50.0
 21
35.0
 31
0.0
  0
LINE
  5
6E
330
1F
100
AcDbEntity
  8
0
  6
Continuous
 62
     7
370
    25
100
AcDbLine
 10
50.0
 20
35.0
 30
0.0
 11
-50.0
 21
35.0
 31
0.0
  0
SPLINE
  5
6F
330
1F
100
AcDbEntity
  8
0
  6
Continuous
 62
     7
370
    25
100
AcDbSpline
210
0.0
220
0.0
230
1.0
 70
     8
 71
     3
 72
    19
 73
    15
 74
     0
 42
0.00000001
 43
0.00000001
 40
0.0
 40
0.0
 40
0.0
 40
0.0
 40
0.0983199739813471
 40
0.1994174736496682
 40
0.3056025976021221
 40
0.416162356355746
 40
0.4745823813143019
 40
0.5370064812335172
 40
0.6038573606499592
 40
0.6740896076918741
 40
0.7494169867637916
 40
0.8282534808908105
 40
0.9120541595560524
 40
1.0
 40
1.0
 40
1.0
 40
1.0
 10
45.95926384265995
 20
22.05860821831168
 30
0.0
 10
45.95284993127174
 20
21.8586171427779
 30
0.0
 10
45.9398409163844
 20
21.4529852714453
 30
0.0
 10
45.84874758761125
 20
20.83668869121635
 30
0.0
 10
45.69406057957687
 20
20.20830414216527
 30
0.0
 10
45.5185191908235
 20
19.67641945684034
 30
0.0
 10
45.34907124965766
 20
19.23713489444898
 30
0.0
 10
45.18958937571277
 20
18.89014415200852
 30
0.0
 10
45.01263036861912
 20
18.52492156161929
 30
0.0
 10
44.80624394508405
 20
18.145296765224
 30
0.0
 10
44.584380587174
 20
17.74643039640009
 30
0.0
 10
44.33368652484602
 20
17.33232304340698
 30
0.0
 10
44.05988048405148
 20
16.90241900920148
 30
0.0
 10
43.86486443820977
 20
16.61260271571838
 30
0.0
 10
43.76500302535225
 20
16.46419716061937
 30
0.0
  0
LINE
  5
70
330
1F
100
AcDbEntity
  8
0
  6
Continuous
 62
     7
370
    25
100
AcDbLine
 10
43.7650030254
 20
16.4641971606
 30
0.0
 11
37.899648458
 21
7.8855913914
 31
0.0
  0
LINE
  5
71
330
1F
100
AcDbEntity
  8
0
  6
Continuous
 62
     7
370
    25
100
AcDbLine
 10
37.899648458
 20
7.8855913914
 30
0.0
 11
36.5334825927
 21
8.8358017279
 31
0.0
  0
LINE
  5
72
330
1F
100
AcDbEntity
  8
0
  6
Continuous
 62
     7
370
    25
100
AcDbLine
 10
36.5334825927
 20
8.8358017279
 30
0.0
 11
41.8302374004
 21
16.5786803337
 31
0.0
  0
SPLINE
  5
73
330
1F
100
AcDbEntity
  8
0
  6
Continuous
 62
     7
370
    25
100
AcDbSpline
210
0.0
220
0.0
230
1.0
 70
     8
 71
     3
 72
     9
 73
     5
 74
     0
 42
0.00000001
 43
0.00000001
 40
0.0
 40
0.0
 40
0.0
 40
0.0
 40
0.5078576360847799
 40
1.0
 40
1.0
 40
1.0
 40
1.0
 10
41.83023740035225
 20
16.57868033369629
 30
0.0
 10
41.49228639658606
 20
16.53735237475421
 30
0.0
 10
40.8268420284132
 20
16.45597531944262
 30
0.0
 10
40.1566243728518
 20
16.44102567018894
 30
0.0
 10
39.82678187150609
 20
16.43366831446552
 30
0.0
  0
SPLINE
  5
74
330
1F
100
AcDbEntity
  8
0
  6
Continuous
 62
     7
370
    25
100
AcDbSpline
210
0.0
220
0.0
230
1.0
 70
     8
 71
     3
 72
    23
 73
    19
 74
     0
 42
0.00000001
 43
0.00000001
 40
0.0
 40
0.0
 40
0.0
 40
0.0
 40
0.066294912801988
 40
0.1301311164811678
 40
0.1928622251726073
 40
0.2543600042042222
 40
0.3159098460813266
 40
0.3773381393463534
 40
0.4402052628879282
 40
0.5041751317708956
 40
0.5680336324132697
 40
0.6302277217668694
 40
0.6908614774070665
 40
0.7514218176484552
 40
0.8114657367408613
 40
0.8727504667961274
 40
0.9353907348444664
 40
1.0
 40
1.0
 40
1.0
 40
1.0
 10
39.82678187150609
 20
16.43366831446552
 30
0.0
 10
39.62680015416867
 20
16.43879045920897
 30
0.0
 10
39.23425353101118
 20
16.4488447814197
 30
0.0
 10
38.65713839355494
 20
16.52853805232011
 30
0.0
 10
38.10258984245541
 20
16.65127517633303
 30
0.0
 10
37.57207806243583
 20
16.8344205431125
 30
0.0
 10
37.06360904308578
 20
17.06203108082907
 30
0.0
 10
36.57829280315931
 20
17.34428139796039
 30
0.0
 10
36.11678265625862
 20
17.67632992781194
 30
0.0
 10
35.68403518205222
 20
18.05642092456338
 30
0.0
 10
35.29045271751453
 20
18.47376861019925
 30
0.0
 10
34.93980591112004
 20
18.91548718088986
 30
0.0
 10
34.64838917856807
 20
19.38670782126236
 30
0.0
 10
34.40630947820629
 20
19.87781801625902
 30
0.0
 10
34.22271943798987
 20
20.39587651159836
 30
0.0
 10
34.08902905481965
 20
20.93498824665508
 30
0.0
 10
34.00672024031671
 20
21.49893161230712
 30
0.0
 10
33.99692802034961
 20
21.88278982406451
 30
0.0
 10
33.99195615035225
 20
22.07768874715783
 30
0.0
  0
SPLINE
  5
75
330
1F
100
AcDbEntity
  8
0
  6
Continuous
 62
     7
370
    25
100
AcDbSpline
210
0.0
220
0.0
230
1.0
 70
     8
 71
     3
 72
    19
 73
    15
 74
     0
 42
0.00000001
 43
0.00000001
 40
0.0
 40
0.0
 40
0.0
 40
0.0
 40
0.0852490510097897
 40
0.1673265936178215
 40
0.2481753245808506
 40
0.3288290783116015
 40
0.4099080969767692
 40
0.4905844511407962
 40
0.5729934871893902
 40
0.6582648924880345
 40
0.7442215773079898
 40
0.8290604069913393
 40
0.9139382978106163
 40
1.0
 40
1.0
 40
1.0
 40
1.0
 10
33.99195615035225
 20
22.07768874715783
 30
0.0
 10
34.00139643111169
 20
22.34421812839046
 30
0.0
 10
34.01992578719909
 20
22.86736123593778
 30
0.0
 10
34.16905200257337
 20
23.63172217864559
 30
0.0
 10
34.41430899162535
 20
24.35446036604966
 30
0.0
 10
34.75627487087708
 20
25.03367556440222
 30
0.0
 10
35.1869938546623
 20
25.65959727358521
 30
0.0
 10
35.70465632395818
 20
26.22352413178742
 30
0.0
 10
36.30611361529164
 20
26.71743540772213
 30
0.0
 10
36.97766431939558
 20
27.14200045765983
 30
0.0
 10
37.70348576100154
 20
27.48345808564868
 30
0.0
 10
38.46368231425292
 20
27.73513199258477
 30
0.0
 10
39.25242916777659
 20
27.88317089168508
 30
0.0
 10
39.78674177245568
 20
27.9026882215184
 30
0.0
 10
40.05574821765995
 20
27.91251446831168
 30
0.0
  0
SPLINE
  5
76
330
1F
100
AcDbEntity
  8
0
  6
Continuous
 62
     7
370
    25
100
AcDbSpline
210
0.0
220
0.0
230
1.0
 70
     8
 71
     3
 72
    19
 73
    15
 74
     0
 42
0.00000001
 43
0.00000001
 40
0.0
 40
0.0
 40
0.0
 40
0.0
 40
0.0855321076772632
 40
0.1690033828897665
 40
0.2519432488916393
 40
0.3356820104014507
 40
0.4194085858192976
 40
0.501264898481744
 40
0.5837029416042834
 40
0.6680003590442505
 40
0.7519186598620653
 40
0.8345977112584771
 40
0.9165256687801532
 40
1.0
 40
1.0
 40
1.0
 40
1.0
 10
40.05574821765995
 20
27.91251446831168
 30
0.0
 10
40.31966375859913
 20
27.90255315224508
 30
0.0
 10
40.84113599197612
 20
27.88287053060737
 30
0.0
 10
41.6079747277426
 20
27.73872207034104
 30
0.0
 10
42.34243940568367
 20
27.49577103693198
 30
0.0
 10
43.04045854753386
 20
27.16003076856396
 30
0.0
 10
43.68674020553484
 20
26.73918411375099
 30
0.0
 10
44.26790569223287
 20
26.23770906316815
 30
0.0
 10
44.77069255501861
 20
25.65529326497103
 30
0.0
 10
45.19427682016646
 20
25.00602305486506
 30
0.0
 10
45.5342923251733
 20
24.30842848578893
 30
0.0
 10
45.77961432256945
 20
23.58026170760109
 30
0.0
 10
45.93062987195233
 20
22.82675952455298
 30
0.0
 10
45.94965988084402
 20
22.31624960131542
 30
0.0
 10
45.95926384265994
 20
22.05860821831168
 30
0.0
  0
LINE
  5
77
330
1F
100
AcDbEntity
  8
0
  6
Continuous
 62
     7
370
    25
100
AcDbLine
 10
24.9554176888
 20
25.470206776
 30
0.0
 11
22.024648458
 21
25.470206776
 31
0.0
  0
LINE
  5
78
330
1F
100
AcDbEntity
  8
0
  6
Continuous
 62
     7
370
    25
100
AcDbLine
 10
22.024648458
 20
25.470206776
 30
0.0
 11
23.1427674484
 21
27.4240529299
 31
0.0
  0
LINE
  5
79
330
1F
100
AcDbEntity
  8
0
  6
Continuous
 62
     7
370
    25
100
AcDbLine
 10
23.1427674484
 20
27.4240529299
 30
0.0
 11
26.6650330734
 21
27.4240529299
 31
0.0
  0
LINE
  5
7A
330
1F
100
AcDbEntity
  8
0
  6
Continuous
 62
     7
370
    25
100
AcDbLine
 10
26.6650330734
 20
27.4240529299
 30
0.0
 11
26.6650330734
 21
8.3740529299
 31
0.0
  0
LINE
  5
7B
330
1F
100
AcDbEntity
  8
0
  6
Continuous
 62
     7
370
    25
100
AcDbLine
 10
26.6650330734
 20
8.3740529299
 30
0.0
 11
24.9554176888
 21
8.3740529299
 31
0.0
  0
LINE
  5
7C
330
1F
100
AcDbEntity
  8
0
  6
Continuous
 62
     7
370
    25
100
AcDbLine
 10
24.9554176888
 20
8.3740529299
 30
0.0
 11
24.9554176888
 21
25.470206776
 31
0.0
  0
ENDSEC
  0
SECTION
  2
OBJECTS
  0
DICTIONARY
  5
C
330
0
100
AcDbDictionary
281
     1
  3
ACAD_GROUP
350
D
  3
ACAD_LAYOUT
350
1A
  3
ACAD_MLINESTYLE
350
17
  3
ACAD_PLOTSETTINGS
350
19
  3
ACAD_PLOTSTYLENAME
350
E
  3
ACAD_SCALELIST
350
47
  3
DWGPROPS
350
7D
  0
DICTIONARY
  5
D
102
{ACAD_REACTORS
330
C
102
}
330
C
100
AcDbDictionary
281
     1
  0
DICTIONARY
  5
1A
102
{ACAD_REACTORS
330
C
102
}
330
C
100
AcDbDictionary
281
     1
  3
Layout1
350
1E
  3
Layout2
350
26
  3
Model
350
22
  0
DICTIONARY
  5
17
102
{ACAD_REACTORS
330
C
102
}
330
C
100
AcDbDictionary
281
     1
  3
Standard
350
18
  0
DICTIONARY
  5
19
102
{ACAD_REACTORS
330
C
102
}
330
C
100
AcDbDictionary
281
     1
  0
ACDBDICTIONARYWDFLT
  5
E
102
{ACAD_REACTORS
330
C
102
}
330
C
100
AcDbDictionary
281
     1
  3
Normal
350
F
100
AcDbDictionaryWithDefault
340
F
  0
DICTIONARY
  5
47
102
{ACAD_REACTORS
330
C
102
}
330
C
100
AcDbDictionary
281
     1
  3
A0
350
48
  3
A1
350
49
  3
A2
350
4A
  3
A3
350
4B
  3
A4
350
4C
  3
A5
350
4D
  3
A6
350
4E
  3
A7
350
4F
  3
A8
350
50
  3
A9
350
51
  3
B0
350
52
  3
B1
350
53
  3
B2
350
54
  3
B3
350
55
  3
B4
350
56
  3
B5
350
57
  3
B6
350
58
  0
XRECORD
  5
7D
102
{ACAD_REACTORS
330
C
102
}
330
C
100
AcDbXrecord
280
     1
  1
DWGPROPS COOKIE
  2

  3

  4

  6

  7

  8
robis
  9

300
=
301
=
302
=
303
=
304
=
305
=
306
=
307
=
308
=
309
=
 40
0.0
 41
2459996.727381435
 42
2459996.727407384
  1

 90
        0
  0
LAYOUT
  5
1E
102
{ACAD_REACTORS
330
1A
102
}
330
1A
100
AcDbPlotSettings
  1

  2
none_device
  4

  6

 40
0.0
 41
0.0
 42
0.0
 43
0.0
 44
0.0
 45
0.0
 46
0.0
 47
0.0
 48
0.0
 49
0.0
140
0.0
141
0.0
142
1.0
143
1.0
 70
   688
 72
     1
 73
     0
 74
     5
  7

 75
    16
147
1.0
148
0.0
149
0.0
100
AcDbLayout
  1
Layout1
 70
     1
 71
     1
 10
0.0
 20
0.0
 11
420.0
 21
297.0
 12
0.0
 22
0.0
 32
0.0
 14
1.0000000000E+20
 24
1.0000000000E+20
 34
1.0000000000E+20
 15
-1.0000000000E+20
 25
-1.0000000000E+20
 35
-1.0000000000E+20
146
0.0
 13
0.0
 23
0.0
 33
0.0
 16
1.0
 26
0.0
 36
0.0
 17
0.0
 27
1.0
 37
0.0
 76
     0
330
1B
  0
LAYOUT
  5
26
102
{ACAD_REACTORS
330
1A
102
}
330
1A
100
AcDbPlotSettings
  1

  2
none_device
  4

  6

 40
0.0
 41
0.0
 42
0.0
 43
0.0
 44
0.0
 45
0.0
 46
0.0
 47
0.0
 48
0.0
 49
0.0
140
0.0
141
0.0
142
1.0
143
1.0
 70
   688
 72
     1
 73
     0
 74
     5
  7

 75
    16
147
1.0
148
0.0
149
0.0
100
AcDbLayout
  1
Layout2
 70
     1
 71
     2
 10
0.0
 20
0.0
 11
0.0
 21
0.0
 12
0.0
 22
0.0
 32
0.0
 14
0.0
 24
0.0
 34
0.0
 15
0.0
 25
0.0
 35
0.0
146
0.0
 13
0.0
 23
0.0
 33
0.0
 16
1.0
 26
0.0
 36
0.0
 17
0.0
 27
1.0
 37
0.0
 76
     0
330
23
  0
LAYOUT
  5
22
102
{ACAD_REACTORS
330
1A
102
}
330
1A
100
AcDbPlotSettings
  1

  2
none_device
  4
ANSI_A_(11.00_x_8.50_Inches)
  6

 40
6.35
 41
19.05
 42
6.35000508
 43
19.05000254
 44
279.4
 45
215.9
 46
133.34999746
 47
40.49394873
 48
0.0
 49
0.0
140
0.0
141
0.0
142
0.1089
143
1.0
 70
  1696
 72
     0
 73
     0
 74
     0
  7

 75
     0
147
0.0179189148
148
-1300.4909072572
149
0.0
100
AcDbLayout
  1
Model
 70
     1
 71
     0
 10
0.0
 20
0.0
 11
420.0
 21
297.0
 12
0.0
 22
0.0
 32
0.0
 14
-50.0
 24
0.0
 34
0.0
 15
50.0
 25
35.0
 35
0.0
146
0.0
 13
0.0
 23
0.0
 33
0.0
 16
1.0
 26
0.0
 36
0.0
 17
0.0
 27
1.0
 37
0.0
 76
     0
330
1F
331
29
  0
MLINESTYLE
  5
18
102
{ACAD_REACTORS
330
17
102
}
330
17
100
AcDbMlineStyle
  2
Standard
 70
     0
  3

 62
   256
 51
90.0
 52
90.0
 71
     2
 49
0.5
 62
   256
  6
BYLAYER
 49
-0.5
 62
   256
  6
BYLAYER
  0
ACDBPLACEHOLDER
  5
F
102
{ACAD_REACTORS
330
E
102
}
330
E
  0
SCALE
  5
48
102
{ACAD_REACTORS
330
47
102
}
330
47
100
AcDbScale
 70
     0
300
1:1
140
1.0
141
1.0
290
     1
  0
SCALE
  5
49
102
{ACAD_REACTORS
330
47
102
}
330
47
100
AcDbScale
 70
     0
300
1:2
140
1.0
141
2.0
290
     0
  0
SCALE
  5
4A
102
{ACAD_REACTORS
330
47
102
}
330
47
100
AcDbScale
 70
     0
300
1:4
140
1.0
141
4.0
290
     0
  0
SCALE
  5
4B
102
{ACAD_REACTORS
330
47
102
}
330
47
100
AcDbScale
 70
     0
300
1:5
140
1.0
141
5.0
290
     0
  0
SCALE
  5
4C
102
{ACAD_REACTORS
330
47
102
}
330
47
100
AcDbScale
 70
     0
300
1:8
140
1.0
141
8.0
290
     0
  0
SCALE
  5
4D
102
{ACAD_REACTORS
330
47
102
}
330
47
100
AcDbScale
 70
     0
300
1:10
140
1.0
141
10.0
290
     0
  0
SCALE
  5
4E
102
{ACAD_REACTORS
330
47
102
}
330
47
100
AcDbScale
 70
     0
300
1:16
140
1.0
141
16.0
290
     0
  0
SCALE
  5
4F
102
{ACAD_REACTORS
330
47
102
}
330
47
100
AcDbScale
 70
     0
300
1:20
140
1.0
141
20.0
290
     0
  0
SCALE
  5
50
102
{ACAD_REACTORS
330
47
102
}
330
47
100
AcDbScale
 70
     0
300
1:30
140
1.0
141
30.0
290
     0
  0
SCALE
  5
51
102
{ACAD_REACTORS
330
47
102
}
330
47
100
AcDbScale
 70
     0
300
1:40
140
1.0
141
40.0
290
     0
  0
SCALE
  5
52
102
{ACAD_REACTORS
330
47
102
}
330
47
100
AcDbScale
 70
     0
300
1:50
140
1.0
141
50.0
290
     0
  0
SCALE
  5
53
102
{ACAD_REACTORS
330
47
102
}
330
47
100
AcDbScale
 70
     0
300
1:100
140
1.0
141
100.0
290
     0
  0
SCALE
  5
54
102
{ACAD_REACTORS
330
47
102
}
330
47
100
AcDbScale
 70
     0
300
2:1
140
2.0
141
1.0
290
     0
  0
SCALE
  5
55
102
{ACAD_REACTORS
330
47
102
}
330
47
100
AcDbScale
 70
     0
300
4:1
140
4.0
141
1.0
290
     0
  0
SCALE
  5
56
102
{ACAD_REACTORS
330
47
102
}
330
47
100
AcDbScale
 70
     0
300
8:1
140
8.0
141
1.0
290
     0
  0
SCALE
  5
57
102
{ACAD_REACTORS
330
47
102
}
330
47
100
AcDbScale
 70
     0
300
10:1
140
10.0
141
1.0
290
     0
  0
SCALE
  5
58
102
{ACAD_REACTORS
330
47
102
}
330
47
100
AcDbScale
 70
     0
300
100:1
140
100.0
141
1.0
290
     0
  0
ENDSEC
  0
EOF
